<svg width="168" height="47" viewBox="0 0 168 47" fill="none" xmlns="http://www.w3.org/2000/svg">
<path d="M63.2 11.3C62.4 10.5 61.3 10 60 10H48V6C48 5.2 47.7 2 43.5 2H20.3C16.3 2 16 5.2 16 6V10H4C1.9 10 0 11.9 0 14V40.7C0 42.8 1.9 44.7 4 44.7H60C62.1 44.7 64 42.8 64 40.7V14.2C64 13.2 63.7 12.1 63.2 11.3ZM58.7 39.3H5.3V15.3H16C18.9 15.3 21.3 12.9 21.3 10V7.3H42.6V10C42.6 12.9 45 15.3 47.9 15.3H58.6V39.3H58.7Z" fill="#FF6464"/>
<path d="M30.7 15.3C25.6 15.3 21.4 19.6 21.4 24.6C21.4 29.9 25.4 33.9 30.7 33.9C35.8 33.9 40 29.6 40 24.6C40 19.6 35.7 15.3 30.7 15.3ZM30.7 28.7C28.3 28.7 26.7 27.1 26.7 24.7C26.7 22.6 28.6 20.7 30.7 20.7C32.8 20.7 34.7 22.6 34.7 24.7C34.7 26.7 32.8 28.7 30.7 28.7Z" fill="#FF6464"/>
<path d="M10.7 23.3C12.1912 23.3 13.4 22.0912 13.4 20.6C13.4 19.1088 12.1912 17.9 10.7 17.9C9.20883 17.9 8 19.1088 8 20.6C8 22.0912 9.20883 23.3 10.7 23.3Z" fill="#FF6464"/>
<path d="M78.0391 11.9883V18H74.5234V0.9375H81.1797C82.4609 0.9375 83.5859 1.17188 84.5547 1.64062C85.5312 2.10938 86.2812 2.77734 86.8047 3.64453C87.3281 4.50391 87.5898 5.48438 87.5898 6.58594C87.5898 8.25781 87.0156 9.57812 85.8672 10.5469C84.7266 11.5078 83.1445 11.9883 81.1211 11.9883H78.0391ZM78.0391 9.14062H81.1797C82.1094 9.14062 82.8164 8.92188 83.3008 8.48438C83.793 8.04688 84.0391 7.42188 84.0391 6.60938C84.0391 5.77344 83.793 5.09766 83.3008 4.58203C82.8086 4.06641 82.1289 3.80078 81.2617 3.78516H78.0391V9.14062Z" fill="#473C3C"/>
<path d="M103.902 18H100.387V10.6875H93.5312V18H90.0156V0.9375H93.5312V7.85156H100.387V0.9375H103.902V18Z" fill="#473C3C"/>
<path d="M121 9.85547C121 11.5352 120.703 13.0078 120.109 14.2734C119.516 15.5391 118.664 16.5156 117.555 17.2031C116.453 17.8906 115.188 18.2344 113.758 18.2344C112.344 18.2344 111.082 17.8945 109.973 17.2148C108.863 16.5352 108.004 15.5664 107.395 14.3086C106.785 13.043 106.477 11.5898 106.469 9.94922V9.10547C106.469 7.42578 106.77 5.94922 107.371 4.67578C107.98 3.39453 108.836 2.41406 109.938 1.73438C111.047 1.04688 112.312 0.703125 113.734 0.703125C115.156 0.703125 116.418 1.04688 117.52 1.73438C118.629 2.41406 119.484 3.39453 120.086 4.67578C120.695 5.94922 121 7.42188 121 9.09375V9.85547ZM117.438 9.08203C117.438 7.29297 117.117 5.93359 116.477 5.00391C115.836 4.07422 114.922 3.60938 113.734 3.60938C112.555 3.60938 111.645 4.07031 111.004 4.99219C110.363 5.90625 110.039 7.25 110.031 9.02344V9.85547C110.031 11.5977 110.352 12.9492 110.992 13.9102C111.633 14.8711 112.555 15.3516 113.758 15.3516C114.938 15.3516 115.844 14.8906 116.477 13.9688C117.109 13.0391 117.43 11.6875 117.438 9.91406V9.08203Z" fill="#473C3C"/>
<path d="M135.391 3.78516H130.164V18H126.648V3.78516H121.492V0.9375H135.391V3.78516Z" fill="#473C3C"/>
<path d="M151.094 9.85547C151.094 11.5352 150.797 13.0078 150.203 14.2734C149.609 15.5391 148.758 16.5156 147.648 17.2031C146.547 17.8906 145.281 18.2344 143.852 18.2344C142.438 18.2344 141.176 17.8945 140.066 17.2148C138.957 16.5352 138.098 15.5664 137.488 14.3086C136.879 13.043 136.57 11.5898 136.562 9.94922V9.10547C136.562 7.42578 136.863 5.94922 137.465 4.67578C138.074 3.39453 138.93 2.41406 140.031 1.73438C141.141 1.04688 142.406 0.703125 143.828 0.703125C145.25 0.703125 146.512 1.04688 147.613 1.73438C148.723 2.41406 149.578 3.39453 150.18 4.67578C150.789 5.94922 151.094 7.42188 151.094 9.09375V9.85547ZM147.531 9.08203C147.531 7.29297 147.211 5.93359 146.57 5.00391C145.93 4.07422 145.016 3.60938 143.828 3.60938C142.648 3.60938 141.738 4.07031 141.098 4.99219C140.457 5.90625 140.133 7.25 140.125 9.02344V9.85547C140.125 11.5977 140.445 12.9492 141.086 13.9102C141.727 14.8711 142.648 15.3516 143.852 15.3516C145.031 15.3516 145.938 14.8906 146.57 13.9688C147.203 13.0391 147.523 11.6875 147.531 9.91406V9.08203Z" fill="#473C3C"/>
<path d="M88.0234 43.8438C87.3906 44.6016 86.4961 45.1914 85.3398 45.6133C84.1836 46.0273 82.9023 46.2344 81.4961 46.2344C80.0195 46.2344 78.7227 45.9141 77.6055 45.2734C76.4961 44.625 75.6367 43.6875 75.0273 42.4609C74.4258 41.2344 74.1172 39.793 74.1016 38.1367V36.9766C74.1016 35.2734 74.3867 33.8008 74.957 32.5586C75.5352 31.3086 76.3633 30.3555 77.4414 29.6992C78.5273 29.0352 79.7969 28.7031 81.25 28.7031C83.2734 28.7031 84.8555 29.1875 85.9961 30.1562C87.1367 31.1172 87.8125 32.5195 88.0234 34.3633H84.6016C84.4453 33.3867 84.0977 32.6719 83.5586 32.2188C83.0273 31.7656 82.293 31.5391 81.3555 31.5391C80.1602 31.5391 79.25 31.9883 78.625 32.8867C78 33.7852 77.6836 35.1211 77.6758 36.8945V37.9844C77.6758 39.7734 78.0156 41.125 78.6953 42.0391C79.375 42.9531 80.3711 43.4102 81.6836 43.4102C83.0039 43.4102 83.9453 43.1289 84.5078 42.5664V39.625H81.3086V37.0352H88.0234V43.8438Z" fill="#473C3C"/>
<path d="M97.1992 39.7539H94.3984V46H90.8828V28.9375H97.2227C99.2383 28.9375 100.793 29.3867 101.887 30.2852C102.98 31.1836 103.527 32.4531 103.527 34.0938C103.527 35.2578 103.273 36.2305 102.766 37.0117C102.266 37.7852 101.504 38.4023 100.48 38.8633L104.172 45.8359V46H100.398L97.1992 39.7539ZM94.3984 36.9062H97.2344C98.1172 36.9062 98.8008 36.6836 99.2852 36.2383C99.7695 35.7852 100.012 35.1641 100.012 34.375C100.012 33.5703 99.7812 32.9375 99.3203 32.4766C98.8672 32.0156 98.168 31.7852 97.2227 31.7852H94.3984V36.9062Z" fill="#473C3C"/>
<path d="M115.844 42.4844H109.68L108.508 46H104.77L111.121 28.9375H114.379L120.766 46H117.027L115.844 42.4844ZM110.629 39.6367H114.895L112.75 33.25L110.629 39.6367Z" fill="#473C3C"/>
<path d="M125.875 39.9883V46H122.359V28.9375H129.016C130.297 28.9375 131.422 29.1719 132.391 29.6406C133.367 30.1094 134.117 30.7773 134.641 31.6445C135.164 32.5039 135.426 33.4844 135.426 34.5859C135.426 36.2578 134.852 37.5781 133.703 38.5469C132.562 39.5078 130.98 39.9883 128.957 39.9883H125.875ZM125.875 37.1406H129.016C129.945 37.1406 130.652 36.9219 131.137 36.4844C131.629 36.0469 131.875 35.4219 131.875 34.6094C131.875 33.7734 131.629 33.0977 131.137 32.582C130.645 32.0664 129.965 31.8008 129.098 31.7852H125.875V37.1406Z" fill="#473C3C"/>
<path d="M151.738 46H148.223V38.6875H141.367V46H137.852V28.9375H141.367V35.8516H148.223V28.9375H151.738V46Z" fill="#473C3C"/>
<path d="M160.375 36.625L163.926 28.9375H167.77L162.168 39.8125V46H158.594V39.8125L152.992 28.9375H156.848L160.375 36.625Z" fill="#473C3C"/>
</svg>
